<svg xmlns="http://www.w3.org/2000/svg" width="1395.0" height="230.0"><rect x="0" y="0" width="1395.0" height="230.0" fill="white"/><rect stroke="#dddddd" stroke-width="1.0" x="80.0" y="40.0" width="20.0" height="20.0" rx="3.0" ry="3.0" fill="#ebedf0"/><rect stroke="#dddddd" stroke-width="1.0" x="80.0" y="65.0" width="20.0" height="20.0" rx="3.0" ry="3.0" fill="#ebedf0"/><rect stroke="#dddddd" stroke-width="1.0" x="80.0" y="90.0" width="20.0" height="20.0" rx="3.0" ry="3.0" fill="#ebedf0"/><rect stroke="#dddddd" stroke-width="1.0" x="80.0" y="115.0" width="20.0" height="20.0" rx="3.0" ry="3.0" fill="#B6E3FF"/><rect stroke="#dddddd" stroke-width="1.0" x="80.0" y="140.0" width="20.0" height="20.0" rx="3.0" ry="3.0" fill="#54AEFF"/><rect stroke="#dddddd" stroke-width="1.0" x="80.0" y="165.0" width="20.0" height="20.0" rx="3.0" ry="3.0" fill="#B6E3FF"/><rect stroke="#dddddd" stroke-width="1.0" x="80.0" y="190.0" width="20.0" height="20.0" rx="3.0" ry="3.0" fill="#ebedf0"/><rect stroke="#dddddd" stroke-width="1.0" x="105.0" y="40.0" width="20.0" height="20.0" rx="3.0" ry="3.0" fill="#ebedf0"/><rect stroke="#dddddd" stroke-width="1.0" x="105.0" y="65.0" width="20.0" height="20.0" rx="3.0" ry="3.0" fill="#54AEFF"/><rect stroke="#dddddd" stroke-width="1.0" x="105.0" y="90.0" width="20.0" height="20.0" rx="3.0" ry="3.0" fill="#54AEFF"/><rect stroke="#dddddd" stroke-width="1.0" x="105.0" y="115.0" width="20.0" height="20.0" rx="3.0" ry="3.0" fill="#54AEFF"/><rect stroke="#dddddd" stroke-width="1.0" x="105.0" y="140.0" width="20.0" height="20.0" rx="3.0" ry="3.0" fill="#B6E3FF"/><rect stroke="#dddddd" stroke-width="1.0" x="105.0" y="165.0" width="20.0" height="20.0" rx="3.0" ry="3.0" fill="#B6E3FF"/><rect stroke="#dddddd" stroke-width="1.0" x="105.0" y="190.0" width="20.0" height="20.0" rx="3.0" ry="3.0" fill="#ebedf0"/><rect stroke="#dddddd" stroke-width="1.0" x="130.0" y="40.0" width="20.0" height="20.0" rx="3.0" ry="3.0" fill="#ebedf0"/><rect stroke="#dddddd" stroke-width="1.0" x="130.0" y="65.0" width="20.0" height="20.0" rx="3.0" ry="3.0" fill="#ebedf0"/><rect stroke="#dddddd" stroke-width="1.0" x="130.0" y="90.0" width="20.0" height="20.0" rx="3.0" ry="3.0" fill="#B6E3FF"/><rect stroke="#dddddd" stroke-width="1.0" x="130.0" y="115.0" width="20.0" height="20.0" rx="3.0" ry="3.0" fill="#ebedf0"/><rect stroke="#dddddd" stroke-width="1.0" x="130.0" y="140.0" width="20.0" height="20.0" rx="3.0" ry="3.0" fill="#ebedf0"/><rect stroke="#dddddd" stroke-width="1.0" x="130.0" y="165.0" width="20.0" height="20.0" rx="3.0" ry="3.0" fill="#ebedf0"/><rect stroke="#dddddd" stroke-width="1.0" x="130.0" y="190.0" width="20.0" height="20.0" rx="3.0" ry="3.0" fill="#ebedf0"/><rect stroke="#dddddd" stroke-width="1.0" x="155.0" y="40.0" width="20.0" height="20.0" rx="3.0" ry="3.0" fill="#ebedf0"/><rect stroke="#dddddd" stroke-width="1.0" x="155.0" y="65.0" width="20.0" height="20.0" rx="3.0" ry="3.0" fill="#ebedf0"/><rect stroke="#dddddd" stroke-width="1.0" x="155.0" y="90.0" width="20.0" height="20.0" rx="3.0" ry="3.0" fill="#ebedf0"/><rect stroke="#dddddd" stroke-width="1.0" x="155.0" y="115.0" width="20.0" height="20.0" rx="3.0" ry="3.0" fill="#ebedf0"/><rect stroke="#dddddd" stroke-width="1.0" x="155.0" y="140.0" width="20.0" height="20.0" rx="3.0" ry="3.0" fill="#ebedf0"/><rect stroke="#dddddd" stroke-width="1.0" x="155.0" y="165.0" width="20.0" height="20.0" rx="3.0" ry="3.0" fill="#ebedf0"/><rect stroke="#dddddd" stroke-width="1.0" x="155.0" y="190.0" width="20.0" height="20.0" rx="3.0" ry="3.0" fill="#B6E3FF"/><rect stroke="#dddddd" stroke-width="1.0" x="180.0" y="40.0" width="20.0" height="20.0" rx="3.0" ry="3.0" fill="#B6E3FF"/><rect stroke="#dddddd" stroke-width="1.0" x="180.0" y="65.0" width="20.0" height="20.0" rx="3.0" ry="3.0" fill="#ebedf0"/><rect stroke="#dddddd" stroke-width="1.0" x="180.0" y="90.0" width="20.0" height="20.0" rx="3.0" ry="3.0" fill="#B6E3FF"/><rect stroke="#dddddd" stroke-width="1.0" x="180.0" y="115.0" width="20.0" height="20.0" rx="3.0" ry="3.0" fill="#54AEFF"/><rect stroke="#dddddd" stroke-width="1.0" x="180.0" y="140.0" width="20.0" height="20.0" rx="3.0" ry="3.0" fill="#B6E3FF"/><rect stroke="#dddddd" stroke-width="1.0" x="180.0" y="165.0" width="20.0" height="20.0" rx="3.0" ry="3.0" fill="#B6E3FF"/><rect stroke="#dddddd" stroke-width="1.0" x="180.0" y="190.0" width="20.0" height="20.0" rx="3.0" ry="3.0" fill="#ebedf0"/><rect stroke="#dddddd" stroke-width="1.0" x="205.0" y="40.0" width="20.0" height="20.0" rx="3.0" ry="3.0" fill="#B6E3FF"/><rect stroke="#dddddd" stroke-width="1.0" x="205.0" y="65.0" width="20.0" height="20.0" rx="3.0" ry="3.0" fill="#B6E3FF"/><rect stroke="#dddddd" stroke-width="1.0" x="205.0" y="90.0" width="20.0" height="20.0" rx="3.0" ry="3.0" fill="#B6E3FF"/><rect stroke="#dddddd" stroke-width="1.0" x="205.0" y="115.0" width="20.0" height="20.0" rx="3.0" ry="3.0" fill="#B6E3FF"/><rect stroke="#dddddd" stroke-width="1.0" x="205.0" y="140.0" width="20.0" height="20.0" rx="3.0" ry="3.0" fill="#54AEFF"/><rect stroke="#dddddd" stroke-width="1.0" x="205.0" y="165.0" width="20.0" height="20.0" rx="3.0" ry="3.0" fill="#B6E3FF"/><rect stroke="#dddddd" stroke-width="1.0" x="205.0" y="190.0" width="20.0" height="20.0" rx="3.0" ry="3.0" fill="#ebedf0"/><rect stroke="#dddddd" stroke-width="1.0" x="230.0" y="40.0" width="20.0" height="20.0" rx="3.0" ry="3.0" fill="#ebedf0"/><rect stroke="#dddddd" stroke-width="1.0" x="230.0" y="65.0" width="20.0" height="20.0" rx="3.0" ry="3.0" fill="#B6E3FF"/><rect stroke="#dddddd" stroke-width="1.0" x="230.0" y="90.0" width="20.0" height="20.0" rx="3.0" ry="3.0" fill="#B6E3FF"/><rect stroke="#dddddd" stroke-width="1.0" x="230.0" y="115.0" width="20.0" height="20.0" rx="3.0" ry="3.0" fill="#B6E3FF"/><rect stroke="#dddddd" stroke-width="1.0" x="230.0" y="140.0" width="20.0" height="20.0" rx="3.0" ry="3.0" fill="#54AEFF"/><rect stroke="#dddddd" stroke-width="1.0" x="230.0" y="165.0" width="20.0" height="20.0" rx="3.0" ry="3.0" fill="#B6E3FF"/><rect stroke="#dddddd" stroke-width="1.0" x="230.0" y="190.0" width="20.0" height="20.0" rx="3.0" ry="3.0" fill="#ebedf0"/><rect stroke="#dddddd" stroke-width="1.0" x="255.0" y="40.0" width="20.0" height="20.0" rx="3.0" ry="3.0" fill="#B6E3FF"/><rect stroke="#dddddd" stroke-width="1.0" x="255.0" y="65.0" width="20.0" height="20.0" rx="3.0" ry="3.0" fill="#0969DA"/><rect stroke="#dddddd" stroke-width="1.0" x="255.0" y="90.0" width="20.0" height="20.0" rx="3.0" ry="3.0" fill="#0969DA"/><rect stroke="#dddddd" stroke-width="1.0" x="255.0" y="115.0" width="20.0" height="20.0" rx="3.0" ry="3.0" fill="#B6E3FF"/><rect stroke="#dddddd" stroke-width="1.0" x="255.0" y="140.0" width="20.0" height="20.0" rx="3.0" ry="3.0" fill="#0A3069"/><rect stroke="#dddddd" stroke-width="1.0" x="255.0" y="165.0" width="20.0" height="20.0" rx="3.0" ry="3.0" fill="#B6E3FF"/><rect stroke="#dddddd" stroke-width="1.0" x="255.0" y="190.0" width="20.0" height="20.0" rx="3.0" ry="3.0" fill="#B6E3FF"/><rect stroke="#dddddd" stroke-width="1.0" x="280.0" y="40.0" width="20.0" height="20.0" rx="3.0" ry="3.0" fill="#0A3069"/><rect stroke="#dddddd" stroke-width="1.0" x="280.0" y="65.0" width="20.0" height="20.0" rx="3.0" ry="3.0" fill="#0A3069"/><rect stroke="#dddddd" stroke-width="1.0" x="280.0" y="90.0" width="20.0" height="20.0" rx="3.0" ry="3.0" fill="#0A3069"/><rect stroke="#dddddd" stroke-width="1.0" x="280.0" y="115.0" width="20.0" height="20.0" rx="3.0" ry="3.0" fill="#54AEFF"/><rect stroke="#dddddd" stroke-width="1.0" x="280.0" y="140.0" width="20.0" height="20.0" rx="3.0" ry="3.0" fill="#0A3069"/><rect stroke="#dddddd" stroke-width="1.0" x="280.0" y="165.0" width="20.0" height="20.0" rx="3.0" ry="3.0" fill="#54AEFF"/><rect stroke="#dddddd" stroke-width="1.0" x="280.0" y="190.0" width="20.0" height="20.0" rx="3.0" ry="3.0" fill="#B6E3FF"/><rect stroke="#dddddd" stroke-width="1.0" x="305.0" y="40.0" width="20.0" height="20.0" rx="3.0" ry="3.0" fill="#B6E3FF"/><rect stroke="#dddddd" stroke-width="1.0" x="305.0" y="65.0" width="20.0" height="20.0" rx="3.0" ry="3.0" fill="#ebedf0"/><rect stroke="#dddddd" stroke-width="1.0" x="305.0" y="90.0" width="20.0" height="20.0" rx="3.0" ry="3.0" fill="#54AEFF"/><rect stroke="#dddddd" stroke-width="1.0" x="305.0" y="115.0" width="20.0" height="20.0" rx="3.0" ry="3.0" fill="#B6E3FF"/><rect stroke="#dddddd" stroke-width="1.0" x="305.0" y="140.0" width="20.0" height="20.0" rx="3.0" ry="3.0" fill="#ebedf0"/><rect stroke="#dddddd" stroke-width="1.0" x="305.0" y="165.0" width="20.0" height="20.0" rx="3.0" ry="3.0" fill="#ebedf0"/><rect stroke="#dddddd" stroke-width="1.0" x="305.0" y="190.0" width="20.0" height="20.0" rx="3.0" ry="3.0" fill="#ebedf0"/><rect stroke="#dddddd" stroke-width="1.0" x="330.0" y="40.0" width="20.0" height="20.0" rx="3.0" ry="3.0" fill="#ebedf0"/><rect stroke="#dddddd" stroke-width="1.0" x="330.0" y="65.0" width="20.0" height="20.0" rx="3.0" ry="3.0" fill="#ebedf0"/><rect stroke="#dddddd" stroke-width="1.0" x="330.0" y="90.0" width="20.0" height="20.0" rx="3.0" ry="3.0" fill="#ebedf0"/><rect stroke="#dddddd" stroke-width="1.0" x="330.0" y="115.0" width="20.0" height="20.0" rx="3.0" ry="3.0" fill="#ebedf0"/><rect stroke="#dddddd" stroke-width="1.0" x="330.0" y="140.0" width="20.0" height="20.0" rx="3.0" ry="3.0" fill="#ebedf0"/><rect stroke="#dddddd" stroke-width="1.0" x="330.0" y="165.0" width="20.0" height="20.0" rx="3.0" ry="3.0" fill="#B6E3FF"/><rect stroke="#dddddd" stroke-width="1.0" x="330.0" y="190.0" width="20.0" height="20.0" rx="3.0" ry="3.0" fill="#54AEFF"/><rect stroke="#dddddd" stroke-width="1.0" x="355.0" y="40.0" width="20.0" height="20.0" rx="3.0" ry="3.0" fill="#B6E3FF"/><rect stroke="#dddddd" stroke-width="1.0" x="355.0" y="65.0" width="20.0" height="20.0" rx="3.0" ry="3.0" fill="#ebedf0"/><rect stroke="#dddddd" stroke-width="1.0" x="355.0" y="90.0" width="20.0" height="20.0" rx="3.0" ry="3.0" fill="#ebedf0"/><rect stroke="#dddddd" stroke-width="1.0" x="355.0" y="115.0" width="20.0" height="20.0" rx="3.0" ry="3.0" fill="#ebedf0"/><rect stroke="#dddddd" stroke-width="1.0" x="355.0" y="140.0" width="20.0" height="20.0" rx="3.0" ry="3.0" fill="#54AEFF"/><rect stroke="#dddddd" stroke-width="1.0" x="355.0" y="165.0" width="20.0" height="20.0" rx="3.0" ry="3.0" fill="#ebedf0"/><rect stroke="#dddddd" stroke-width="1.0" x="355.0" y="190.0" width="20.0" height="20.0" rx="3.0" ry="3.0" fill="#ebedf0"/><rect stroke="#dddddd" stroke-width="1.0" x="380.0" y="40.0" width="20.0" height="20.0" rx="3.0" ry="3.0" fill="#B6E3FF"/><rect stroke="#dddddd" stroke-width="1.0" x="380.0" y="65.0" width="20.0" height="20.0" rx="3.0" ry="3.0" fill="#0969DA"/><rect stroke="#dddddd" stroke-width="1.0" x="380.0" y="90.0" width="20.0" height="20.0" rx="3.0" ry="3.0" fill="#54AEFF"/><rect stroke="#dddddd" stroke-width="1.0" x="380.0" y="115.0" width="20.0" height="20.0" rx="3.0" ry="3.0" fill="#54AEFF"/><rect stroke="#dddddd" stroke-width="1.0" x="380.0" y="140.0" width="20.0" height="20.0" rx="3.0" ry="3.0" fill="#0969DA"/><rect stroke="#dddddd" stroke-width="1.0" x="380.0" y="165.0" width="20.0" height="20.0" rx="3.0" ry="3.0" fill="#B6E3FF"/><rect stroke="#dddddd" stroke-width="1.0" x="380.0" y="190.0" width="20.0" height="20.0" rx="3.0" ry="3.0" fill="#B6E3FF"/><rect stroke="#dddddd" stroke-width="1.0" x="405.0" y="40.0" width="20.0" height="20.0" rx="3.0" ry="3.0" fill="#ebedf0"/><rect stroke="#dddddd" stroke-width="1.0" x="405.0" y="65.0" width="20.0" height="20.0" rx="3.0" ry="3.0" fill="#B6E3FF"/><rect stroke="#dddddd" stroke-width="1.0" x="405.0" y="90.0" width="20.0" height="20.0" rx="3.0" ry="3.0" fill="#B6E3FF"/><rect stroke="#dddddd" stroke-width="1.0" x="405.0" y="115.0" width="20.0" height="20.0" rx="3.0" ry="3.0" fill="#B6E3FF"/><rect stroke="#dddddd" stroke-width="1.0" x="405.0" y="140.0" width="20.0" height="20.0" rx="3.0" ry="3.0" fill="#B6E3FF"/><rect stroke="#dddddd" stroke-width="1.0" x="405.0" y="165.0" width="20.0" height="20.0" rx="3.0" ry="3.0" fill="#B6E3FF"/><rect stroke="#dddddd" stroke-width="1.0" x="405.0" y="190.0" width="20.0" height="20.0" rx="3.0" ry="3.0" fill="#ebedf0"/><rect stroke="#dddddd" stroke-width="1.0" x="430.0" y="40.0" width="20.0" height="20.0" rx="3.0" ry="3.0" fill="#ebedf0"/><rect stroke="#dddddd" stroke-width="1.0" x="430.0" y="65.0" width="20.0" height="20.0" rx="3.0" ry="3.0" fill="#B6E3FF"/><rect stroke="#dddddd" stroke-width="1.0" x="430.0" y="90.0" width="20.0" height="20.0" rx="3.0" ry="3.0" fill="#ebedf0"/><rect stroke="#dddddd" stroke-width="1.0" x="430.0" y="115.0" width="20.0" height="20.0" rx="3.0" ry="3.0" fill="#ebedf0"/><rect stroke="#dddddd" stroke-width="1.0" x="430.0" y="140.0" width="20.0" height="20.0" rx="3.0" ry="3.0" fill="#B6E3FF"/><rect stroke="#dddddd" stroke-width="1.0" x="430.0" y="165.0" width="20.0" height="20.0" rx="3.0" ry="3.0" fill="#B6E3FF"/><rect stroke="#dddddd" stroke-width="1.0" x="430.0" y="190.0" width="20.0" height="20.0" rx="3.0" ry="3.0" fill="#B6E3FF"/><rect stroke="#dddddd" stroke-width="1.0" x="455.0" y="40.0" width="20.0" height="20.0" rx="3.0" ry="3.0" fill="#ebedf0"/><rect stroke="#dddddd" stroke-width="1.0" x="455.0" y="65.0" width="20.0" height="20.0" rx="3.0" ry="3.0" fill="#B6E3FF"/><rect stroke="#dddddd" stroke-width="1.0" x="455.0" y="90.0" width="20.0" height="20.0" rx="3.0" ry="3.0" fill="#54AEFF"/><rect stroke="#dddddd" stroke-width="1.0" x="455.0" y="115.0" width="20.0" height="20.0" rx="3.0" ry="3.0" fill="#ebedf0"/><rect stroke="#dddddd" stroke-width="1.0" x="455.0" y="140.0" width="20.0" height="20.0" rx="3.0" ry="3.0" fill="#B6E3FF"/><rect stroke="#dddddd" stroke-width="1.0" x="455.0" y="165.0" width="20.0" height="20.0" rx="3.0" ry="3.0" fill="#54AEFF"/><rect stroke="#dddddd" stroke-width="1.0" x="455.0" y="190.0" width="20.0" height="20.0" rx="3.0" ry="3.0" fill="#B6E3FF"/><rect stroke="#dddddd" stroke-width="1.0" x="480.0" y="40.0" width="20.0" height="20.0" rx="3.0" ry="3.0" fill="#B6E3FF"/><rect stroke="#dddddd" stroke-width="1.0" x="480.0" y="65.0" width="20.0" height="20.0" rx="3.0" ry="3.0" fill="#0969DA"/><rect stroke="#dddddd" stroke-width="1.0" x="480.0" y="90.0" width="20.0" height="20.0" rx="3.0" ry="3.0" fill="#0969DA"/><rect stroke="#dddddd" stroke-width="1.0" x="480.0" y="115.0" width="20.0" height="20.0" rx="3.0" ry="3.0" fill="#0969DA"/><rect stroke="#dddddd" stroke-width="1.0" x="480.0" y="140.0" width="20.0" height="20.0" rx="3.0" ry="3.0" fill="#54AEFF"/><rect stroke="#dddddd" stroke-width="1.0" x="480.0" y="165.0" width="20.0" height="20.0" rx="3.0" ry="3.0" fill="#B6E3FF"/><rect stroke="#dddddd" stroke-width="1.0" x="480.0" y="190.0" width="20.0" height="20.0" rx="3.0" ry="3.0" fill="#ebedf0"/><rect stroke="#dddddd" stroke-width="1.0" x="505.0" y="40.0" width="20.0" height="20.0" rx="3.0" ry="3.0" fill="#ebedf0"/><rect stroke="#dddddd" stroke-width="1.0" x="505.0" y="65.0" width="20.0" height="20.0" rx="3.0" ry="3.0" fill="#0969DA"/><rect stroke="#dddddd" stroke-width="1.0" x="505.0" y="90.0" width="20.0" height="20.0" rx="3.0" ry="3.0" fill="#B6E3FF"/><rect stroke="#dddddd" stroke-width="1.0" x="505.0" y="115.0" width="20.0" height="20.0" rx="3.0" ry="3.0" fill="#0A3069"/><rect stroke="#dddddd" stroke-width="1.0" x="505.0" y="140.0" width="20.0" height="20.0" rx="3.0" ry="3.0" fill="#54AEFF"/><rect stroke="#dddddd" stroke-width="1.0" x="505.0" y="165.0" width="20.0" height="20.0" rx="3.0" ry="3.0" fill="#54AEFF"/><rect stroke="#dddddd" stroke-width="1.0" x="505.0" y="190.0" width="20.0" height="20.0" rx="3.0" ry="3.0" fill="#ebedf0"/><rect stroke="#dddddd" stroke-width="1.0" x="530.0" y="40.0" width="20.0" height="20.0" rx="3.0" ry="3.0" fill="#B6E3FF"/><rect stroke="#dddddd" stroke-width="1.0" x="530.0" y="65.0" width="20.0" height="20.0" rx="3.0" ry="3.0" fill="#54AEFF"/><rect stroke="#dddddd" stroke-width="1.0" x="530.0" y="90.0" width="20.0" height="20.0" rx="3.0" ry="3.0" fill="#54AEFF"/><rect stroke="#dddddd" stroke-width="1.0" x="530.0" y="115.0" width="20.0" height="20.0" rx="3.0" ry="3.0" fill="#54AEFF"/><rect stroke="#dddddd" stroke-width="1.0" x="530.0" y="140.0" width="20.0" height="20.0" rx="3.0" ry="3.0" fill="#0969DA"/><rect stroke="#dddddd" stroke-width="1.0" x="530.0" y="165.0" width="20.0" height="20.0" rx="3.0" ry="3.0" fill="#B6E3FF"/><rect stroke="#dddddd" stroke-width="1.0" x="530.0" y="190.0" width="20.0" height="20.0" rx="3.0" ry="3.0" fill="#ebedf0"/><rect stroke="#dddddd" stroke-width="1.0" x="555.0" y="40.0" width="20.0" height="20.0" rx="3.0" ry="3.0" fill="#B6E3FF"/><rect stroke="#dddddd" stroke-width="1.0" x="555.0" y="65.0" width="20.0" height="20.0" rx="3.0" ry="3.0" fill="#B6E3FF"/><rect stroke="#dddddd" stroke-width="1.0" x="555.0" y="90.0" width="20.0" height="20.0" rx="3.0" ry="3.0" fill="#0969DA"/><rect stroke="#dddddd" stroke-width="1.0" x="555.0" y="115.0" width="20.0" height="20.0" rx="3.0" ry="3.0" fill="#54AEFF"/><rect stroke="#dddddd" stroke-width="1.0" x="555.0" y="140.0" width="20.0" height="20.0" rx="3.0" ry="3.0" fill="#54AEFF"/><rect stroke="#dddddd" stroke-width="1.0" x="555.0" y="165.0" width="20.0" height="20.0" rx="3.0" ry="3.0" fill="#B6E3FF"/><rect stroke="#dddddd" stroke-width="1.0" x="555.0" y="190.0" width="20.0" height="20.0" rx="3.0" ry="3.0" fill="#ebedf0"/><rect stroke="#dddddd" stroke-width="1.0" x="580.0" y="40.0" width="20.0" height="20.0" rx="3.0" ry="3.0" fill="#ebedf0"/><rect stroke="#dddddd" stroke-width="1.0" x="580.0" y="65.0" width="20.0" height="20.0" rx="3.0" ry="3.0" fill="#B6E3FF"/><rect stroke="#dddddd" stroke-width="1.0" x="580.0" y="90.0" width="20.0" height="20.0" rx="3.0" ry="3.0" fill="#B6E3FF"/><rect stroke="#dddddd" stroke-width="1.0" x="580.0" y="115.0" width="20.0" height="20.0" rx="3.0" ry="3.0" fill="#B6E3FF"/><rect stroke="#dddddd" stroke-width="1.0" x="580.0" y="140.0" width="20.0" height="20.0" rx="3.0" ry="3.0" fill="#B6E3FF"/><rect stroke="#dddddd" stroke-width="1.0" x="580.0" y="165.0" width="20.0" height="20.0" rx="3.0" ry="3.0" fill="#B6E3FF"/><rect stroke="#dddddd" stroke-width="1.0" x="580.0" y="190.0" width="20.0" height="20.0" rx="3.0" ry="3.0" fill="#ebedf0"/><rect stroke="#dddddd" stroke-width="1.0" x="605.0" y="40.0" width="20.0" height="20.0" rx="3.0" ry="3.0" fill="#54AEFF"/><rect stroke="#dddddd" stroke-width="1.0" x="605.0" y="65.0" width="20.0" height="20.0" rx="3.0" ry="3.0" fill="#54AEFF"/><rect stroke="#dddddd" stroke-width="1.0" x="605.0" y="90.0" width="20.0" height="20.0" rx="3.0" ry="3.0" fill="#54AEFF"/><rect stroke="#dddddd" stroke-width="1.0" x="605.0" y="115.0" width="20.0" height="20.0" rx="3.0" ry="3.0" fill="#54AEFF"/><rect stroke="#dddddd" stroke-width="1.0" x="605.0" y="140.0" width="20.0" height="20.0" rx="3.0" ry="3.0" fill="#54AEFF"/><rect stroke="#dddddd" stroke-width="1.0" x="605.0" y="165.0" width="20.0" height="20.0" rx="3.0" ry="3.0" fill="#B6E3FF"/><rect stroke="#dddddd" stroke-width="1.0" x="605.0" y="190.0" width="20.0" height="20.0" rx="3.0" ry="3.0" fill="#ebedf0"/><rect stroke="#dddddd" stroke-width="1.0" x="630.0" y="40.0" width="20.0" height="20.0" rx="3.0" ry="3.0" fill="#ebedf0"/><rect stroke="#dddddd" stroke-width="1.0" x="630.0" y="65.0" width="20.0" height="20.0" rx="3.0" ry="3.0" fill="#54AEFF"/><rect stroke="#dddddd" stroke-width="1.0" x="630.0" y="90.0" width="20.0" height="20.0" rx="3.0" ry="3.0" fill="#0A3069"/><rect stroke="#dddddd" stroke-width="1.0" x="630.0" y="115.0" width="20.0" height="20.0" rx="3.0" ry="3.0" fill="#0969DA"/><rect stroke="#dddddd" stroke-width="1.0" x="630.0" y="140.0" width="20.0" height="20.0" rx="3.0" ry="3.0" fill="#54AEFF"/><rect stroke="#dddddd" stroke-width="1.0" x="630.0" y="165.0" width="20.0" height="20.0" rx="3.0" ry="3.0" fill="#54AEFF"/><rect stroke="#dddddd" stroke-width="1.0" x="630.0" y="190.0" width="20.0" height="20.0" rx="3.0" ry="3.0" fill="#B6E3FF"/><rect stroke="#dddddd" stroke-width="1.0" x="655.0" y="40.0" width="20.0" height="20.0" rx="3.0" ry="3.0" fill="#B6E3FF"/><rect stroke="#dddddd" stroke-width="1.0" x="655.0" y="65.0" width="20.0" height="20.0" rx="3.0" ry="3.0" fill="#ebedf0"/><rect stroke="#dddddd" stroke-width="1.0" x="655.0" y="90.0" width="20.0" height="20.0" rx="3.0" ry="3.0" fill="#B6E3FF"/><rect stroke="#dddddd" stroke-width="1.0" x="655.0" y="115.0" width="20.0" height="20.0" rx="3.0" ry="3.0" fill="#54AEFF"/><rect stroke="#dddddd" stroke-width="1.0" x="655.0" y="140.0" width="20.0" height="20.0" rx="3.0" ry="3.0" fill="#54AEFF"/><rect stroke="#dddddd" stroke-width="1.0" x="655.0" y="165.0" width="20.0" height="20.0" rx="3.0" ry="3.0" fill="#B6E3FF"/><rect stroke="#dddddd" stroke-width="1.0" x="655.0" y="190.0" width="20.0" height="20.0" rx="3.0" ry="3.0" fill="#B6E3FF"/><rect stroke="#dddddd" stroke-width="1.0" x="680.0" y="40.0" width="20.0" height="20.0" rx="3.0" ry="3.0" fill="#ebedf0"/><rect stroke="#dddddd" stroke-width="1.0" x="680.0" y="65.0" width="20.0" height="20.0" rx="3.0" ry="3.0" fill="#B6E3FF"/><rect stroke="#dddddd" stroke-width="1.0" x="680.0" y="90.0" width="20.0" height="20.0" rx="3.0" ry="3.0" fill="#B6E3FF"/><rect stroke="#dddddd" stroke-width="1.0" x="680.0" y="115.0" width="20.0" height="20.0" rx="3.0" ry="3.0" fill="#54AEFF"/><rect stroke="#dddddd" stroke-width="1.0" x="680.0" y="140.0" width="20.0" height="20.0" rx="3.0" ry="3.0" fill="#ebedf0"/><rect stroke="#dddddd" stroke-width="1.0" x="680.0" y="165.0" width="20.0" height="20.0" rx="3.0" ry="3.0" fill="#B6E3FF"/><rect stroke="#dddddd" stroke-width="1.0" x="680.0" y="190.0" width="20.0" height="20.0" rx="3.0" ry="3.0" fill="#B6E3FF"/><rect stroke="#dddddd" stroke-width="1.0" x="705.0" y="40.0" width="20.0" height="20.0" rx="3.0" ry="3.0" fill="#ebedf0"/><rect stroke="#dddddd" stroke-width="1.0" x="705.0" y="65.0" width="20.0" height="20.0" rx="3.0" ry="3.0" fill="#B6E3FF"/><rect stroke="#dddddd" stroke-width="1.0" x="705.0" y="90.0" width="20.0" height="20.0" rx="3.0" ry="3.0" fill="#B6E3FF"/><rect stroke="#dddddd" stroke-width="1.0" x="705.0" y="115.0" width="20.0" height="20.0" rx="3.0" ry="3.0" fill="#B6E3FF"/><rect stroke="#dddddd" stroke-width="1.0" x="705.0" y="140.0" width="20.0" height="20.0" rx="3.0" ry="3.0" fill="#54AEFF"/><rect stroke="#dddddd" stroke-width="1.0" x="705.0" y="165.0" width="20.0" height="20.0" rx="3.0" ry="3.0" fill="#B6E3FF"/><rect stroke="#dddddd" stroke-width="1.0" x="705.0" y="190.0" width="20.0" height="20.0" rx="3.0" ry="3.0" fill="#ebedf0"/><rect stroke="#dddddd" stroke-width="1.0" x="730.0" y="40.0" width="20.0" height="20.0" rx="3.0" ry="3.0" fill="#ebedf0"/><rect stroke="#dddddd" stroke-width="1.0" x="730.0" y="65.0" width="20.0" height="20.0" rx="3.0" ry="3.0" fill="#54AEFF"/><rect stroke="#dddddd" stroke-width="1.0" x="730.0" y="90.0" width="20.0" height="20.0" rx="3.0" ry="3.0" fill="#0969DA"/><rect stroke="#dddddd" stroke-width="1.0" x="730.0" y="115.0" width="20.0" height="20.0" rx="3.0" ry="3.0" fill="#B6E3FF"/><rect stroke="#dddddd" stroke-width="1.0" x="730.0" y="140.0" width="20.0" height="20.0" rx="3.0" ry="3.0" fill="#B6E3FF"/><rect stroke="#dddddd" stroke-width="1.0" x="730.0" y="165.0" width="20.0" height="20.0" rx="3.0" ry="3.0" fill="#ebedf0"/><rect stroke="#dddddd" stroke-width="1.0" x="730.0" y="190.0" width="20.0" height="20.0" rx="3.0" ry="3.0" fill="#ebedf0"/><rect stroke="#dddddd" stroke-width="1.0" x="755.0" y="40.0" width="20.0" height="20.0" rx="3.0" ry="3.0" fill="#ebedf0"/><rect stroke="#dddddd" stroke-width="1.0" x="755.0" y="65.0" width="20.0" height="20.0" rx="3.0" ry="3.0" fill="#ebedf0"/><rect stroke="#dddddd" stroke-width="1.0" x="755.0" y="90.0" width="20.0" height="20.0" rx="3.0" ry="3.0" fill="#ebedf0"/><rect stroke="#dddddd" stroke-width="1.0" x="755.0" y="115.0" width="20.0" height="20.0" rx="3.0" ry="3.0" fill="#ebedf0"/><rect stroke="#dddddd" stroke-width="1.0" x="755.0" y="140.0" width="20.0" height="20.0" rx="3.0" ry="3.0" fill="#ebedf0"/><rect stroke="#dddddd" stroke-width="1.0" x="755.0" y="165.0" width="20.0" height="20.0" rx="3.0" ry="3.0" fill="#ebedf0"/><rect stroke="#dddddd" stroke-width="1.0" x="755.0" y="190.0" width="20.0" height="20.0" rx="3.0" ry="3.0" fill="#ebedf0"/><rect stroke="#dddddd" stroke-width="1.0" x="780.0" y="40.0" width="20.0" height="20.0" rx="3.0" ry="3.0" fill="#ebedf0"/><rect stroke="#dddddd" stroke-width="1.0" x="780.0" y="65.0" width="20.0" height="20.0" rx="3.0" ry="3.0" fill="#ebedf0"/><rect stroke="#dddddd" stroke-width="1.0" x="780.0" y="90.0" width="20.0" height="20.0" rx="3.0" ry="3.0" fill="#ebedf0"/><rect stroke="#dddddd" stroke-width="1.0" x="780.0" y="115.0" width="20.0" height="20.0" rx="3.0" ry="3.0" fill="#ebedf0"/><rect stroke="#dddddd" stroke-width="1.0" x="780.0" y="140.0" width="20.0" height="20.0" rx="3.0" ry="3.0" fill="#ebedf0"/><rect stroke="#dddddd" stroke-width="1.0" x="780.0" y="165.0" width="20.0" height="20.0" rx="3.0" ry="3.0" fill="#ebedf0"/><rect stroke="#dddddd" stroke-width="1.0" x="780.0" y="190.0" width="20.0" height="20.0" rx="3.0" ry="3.0" fill="#ebedf0"/><rect stroke="#dddddd" stroke-width="1.0" x="805.0" y="40.0" width="20.0" height="20.0" rx="3.0" ry="3.0" fill="#ebedf0"/><rect stroke="#dddddd" stroke-width="1.0" x="805.0" y="65.0" width="20.0" height="20.0" rx="3.0" ry="3.0" fill="#ebedf0"/><rect stroke="#dddddd" stroke-width="1.0" x="805.0" y="90.0" width="20.0" height="20.0" rx="3.0" ry="3.0" fill="#ebedf0"/><rect stroke="#dddddd" stroke-width="1.0" x="805.0" y="115.0" width="20.0" height="20.0" rx="3.0" ry="3.0" fill="#ebedf0"/><rect stroke="#dddddd" stroke-width="1.0" x="805.0" y="140.0" width="20.0" height="20.0" rx="3.0" ry="3.0" fill="#B6E3FF"/><rect stroke="#dddddd" stroke-width="1.0" x="805.0" y="165.0" width="20.0" height="20.0" rx="3.0" ry="3.0" fill="#B6E3FF"/><rect stroke="#dddddd" stroke-width="1.0" x="805.0" y="190.0" width="20.0" height="20.0" rx="3.0" ry="3.0" fill="#ebedf0"/><rect stroke="#dddddd" stroke-width="1.0" x="830.0" y="40.0" width="20.0" height="20.0" rx="3.0" ry="3.0" fill="#ebedf0"/><rect stroke="#dddddd" stroke-width="1.0" x="830.0" y="65.0" width="20.0" height="20.0" rx="3.0" ry="3.0" fill="#ebedf0"/><rect stroke="#dddddd" stroke-width="1.0" x="830.0" y="90.0" width="20.0" height="20.0" rx="3.0" ry="3.0" fill="#ebedf0"/><rect stroke="#dddddd" stroke-width="1.0" x="830.0" y="115.0" width="20.0" height="20.0" rx="3.0" ry="3.0" fill="#B6E3FF"/><rect stroke="#dddddd" stroke-width="1.0" x="830.0" y="140.0" width="20.0" height="20.0" rx="3.0" ry="3.0" fill="#B6E3FF"/><rect stroke="#dddddd" stroke-width="1.0" x="830.0" y="165.0" width="20.0" height="20.0" rx="3.0" ry="3.0" fill="#B6E3FF"/><rect stroke="#dddddd" stroke-width="1.0" x="830.0" y="190.0" width="20.0" height="20.0" rx="3.0" ry="3.0" fill="#B6E3FF"/><rect stroke="#dddddd" stroke-width="1.0" x="855.0" y="40.0" width="20.0" height="20.0" rx="3.0" ry="3.0" fill="#0969DA"/><rect stroke="#dddddd" stroke-width="1.0" x="855.0" y="65.0" width="20.0" height="20.0" rx="3.0" ry="3.0" fill="#0969DA"/><rect stroke="#dddddd" stroke-width="1.0" x="855.0" y="90.0" width="20.0" height="20.0" rx="3.0" ry="3.0" fill="#B6E3FF"/><rect stroke="#dddddd" stroke-width="1.0" x="855.0" y="115.0" width="20.0" height="20.0" rx="3.0" ry="3.0" fill="#0969DA"/><rect stroke="#dddddd" stroke-width="1.0" x="855.0" y="140.0" width="20.0" height="20.0" rx="3.0" ry="3.0" fill="#54AEFF"/><rect stroke="#dddddd" stroke-width="1.0" x="855.0" y="165.0" width="20.0" height="20.0" rx="3.0" ry="3.0" fill="#B6E3FF"/><rect stroke="#dddddd" stroke-width="1.0" x="855.0" y="190.0" width="20.0" height="20.0" rx="3.0" ry="3.0" fill="#54AEFF"/><rect stroke="#dddddd" stroke-width="1.0" x="880.0" y="40.0" width="20.0" height="20.0" rx="3.0" ry="3.0" fill="#B6E3FF"/><rect stroke="#dddddd" stroke-width="1.0" x="880.0" y="65.0" width="20.0" height="20.0" rx="3.0" ry="3.0" fill="#B6E3FF"/><rect stroke="#dddddd" stroke-width="1.0" x="880.0" y="90.0" width="20.0" height="20.0" rx="3.0" ry="3.0" fill="#B6E3FF"/><rect stroke="#dddddd" stroke-width="1.0" x="880.0" y="115.0" width="20.0" height="20.0" rx="3.0" ry="3.0" fill="#B6E3FF"/><rect stroke="#dddddd" stroke-width="1.0" x="880.0" y="140.0" width="20.0" height="20.0" rx="3.0" ry="3.0" fill="#54AEFF"/><rect stroke="#dddddd" stroke-width="1.0" x="880.0" y="165.0" width="20.0" height="20.0" rx="3.0" ry="3.0" fill="#ebedf0"/><rect stroke="#dddddd" stroke-width="1.0" x="880.0" y="190.0" width="20.0" height="20.0" rx="3.0" ry="3.0" fill="#ebedf0"/><rect stroke="#dddddd" stroke-width="1.0" x="905.0" y="40.0" width="20.0" height="20.0" rx="3.0" ry="3.0" fill="#ebedf0"/><rect stroke="#dddddd" stroke-width="1.0" x="905.0" y="65.0" width="20.0" height="20.0" rx="3.0" ry="3.0" fill="#B6E3FF"/><rect stroke="#dddddd" stroke-width="1.0" x="905.0" y="90.0" width="20.0" height="20.0" rx="3.0" ry="3.0" fill="#54AEFF"/><rect stroke="#dddddd" stroke-width="1.0" x="905.0" y="115.0" width="20.0" height="20.0" rx="3.0" ry="3.0" fill="#0969DA"/><rect stroke="#dddddd" stroke-width="1.0" x="905.0" y="140.0" width="20.0" height="20.0" rx="3.0" ry="3.0" fill="#B6E3FF"/><rect stroke="#dddddd" stroke-width="1.0" x="905.0" y="165.0" width="20.0" height="20.0" rx="3.0" ry="3.0" fill="#54AEFF"/><rect stroke="#dddddd" stroke-width="1.0" x="905.0" y="190.0" width="20.0" height="20.0" rx="3.0" ry="3.0" fill="#B6E3FF"/><rect stroke="#dddddd" stroke-width="1.0" x="930.0" y="40.0" width="20.0" height="20.0" rx="3.0" ry="3.0" fill="#B6E3FF"/><rect stroke="#dddddd" stroke-width="1.0" x="930.0" y="65.0" width="20.0" height="20.0" rx="3.0" ry="3.0" fill="#0969DA"/><rect stroke="#dddddd" stroke-width="1.0" x="930.0" y="90.0" width="20.0" height="20.0" rx="3.0" ry="3.0" fill="#54AEFF"/><rect stroke="#dddddd" stroke-width="1.0" x="930.0" y="115.0" width="20.0" height="20.0" rx="3.0" ry="3.0" fill="#B6E3FF"/><rect stroke="#dddddd" stroke-width="1.0" x="930.0" y="140.0" width="20.0" height="20.0" rx="3.0" ry="3.0" fill="#B6E3FF"/><rect stroke="#dddddd" stroke-width="1.0" x="930.0" y="165.0" width="20.0" height="20.0" rx="3.0" ry="3.0" fill="#B6E3FF"/><rect stroke="#dddddd" stroke-width="1.0" x="930.0" y="190.0" width="20.0" height="20.0" rx="3.0" ry="3.0" fill="#ebedf0"/><rect stroke="#dddddd" stroke-width="1.0" x="955.0" y="40.0" width="20.0" height="20.0" rx="3.0" ry="3.0" fill="#ebedf0"/><rect stroke="#dddddd" stroke-width="1.0" x="955.0" y="65.0" width="20.0" height="20.0" rx="3.0" ry="3.0" fill="#ebedf0"/><rect stroke="#dddddd" stroke-width="1.0" x="955.0" y="90.0" width="20.0" height="20.0" rx="3.0" ry="3.0" fill="#ebedf0"/><rect stroke="#dddddd" stroke-width="1.0" x="955.0" y="115.0" width="20.0" height="20.0" rx="3.0" ry="3.0" fill="#B6E3FF"/><rect stroke="#dddddd" stroke-width="1.0" x="955.0" y="140.0" width="20.0" height="20.0" rx="3.0" ry="3.0" fill="#ebedf0"/><rect stroke="#dddddd" stroke-width="1.0" x="955.0" y="165.0" width="20.0" height="20.0" rx="3.0" ry="3.0" fill="#ebedf0"/><rect stroke="#dddddd" stroke-width="1.0" x="955.0" y="190.0" width="20.0" height="20.0" rx="3.0" ry="3.0" fill="#ebedf0"/><rect stroke="#dddddd" stroke-width="1.0" x="980.0" y="40.0" width="20.0" height="20.0" rx="3.0" ry="3.0" fill="#ebedf0"/><rect stroke="#dddddd" stroke-width="1.0" x="980.0" y="65.0" width="20.0" height="20.0" rx="3.0" ry="3.0" fill="#ebedf0"/><rect stroke="#dddddd" stroke-width="1.0" x="980.0" y="90.0" width="20.0" height="20.0" rx="3.0" ry="3.0" fill="#ebedf0"/><rect stroke="#dddddd" stroke-width="1.0" x="980.0" y="115.0" width="20.0" height="20.0" rx="3.0" ry="3.0" fill="#B6E3FF"/><rect stroke="#dddddd" stroke-width="1.0" x="980.0" y="140.0" width="20.0" height="20.0" rx="3.0" ry="3.0" fill="#ebedf0"/><rect stroke="#dddddd" stroke-width="1.0" x="980.0" y="165.0" width="20.0" height="20.0" rx="3.0" ry="3.0" fill="#ebedf0"/><rect stroke="#dddddd" stroke-width="1.0" x="980.0" y="190.0" width="20.0" height="20.0" rx="3.0" ry="3.0" fill="#ebedf0"/><rect stroke="#dddddd" stroke-width="1.0" x="1005.0" y="40.0" width="20.0" height="20.0" rx="3.0" ry="3.0" fill="#B6E3FF"/><rect stroke="#dddddd" stroke-width="1.0" x="1005.0" y="65.0" width="20.0" height="20.0" rx="3.0" ry="3.0" fill="#ebedf0"/><rect stroke="#dddddd" stroke-width="1.0" x="1005.0" y="90.0" width="20.0" height="20.0" rx="3.0" ry="3.0" fill="#ebedf0"/><rect stroke="#dddddd" stroke-width="1.0" x="1005.0" y="115.0" width="20.0" height="20.0" rx="3.0" ry="3.0" fill="#B6E3FF"/><rect stroke="#dddddd" stroke-width="1.0" x="1005.0" y="140.0" width="20.0" height="20.0" rx="3.0" ry="3.0" fill="#B6E3FF"/><rect stroke="#dddddd" stroke-width="1.0" x="1005.0" y="165.0" width="20.0" height="20.0" rx="3.0" ry="3.0" fill="#ebedf0"/><rect stroke="#dddddd" stroke-width="1.0" x="1005.0" y="190.0" width="20.0" height="20.0" rx="3.0" ry="3.0" fill="#B6E3FF"/><rect stroke="#dddddd" stroke-width="1.0" x="1030.0" y="40.0" width="20.0" height="20.0" rx="3.0" ry="3.0" fill="#B6E3FF"/><rect stroke="#dddddd" stroke-width="1.0" x="1030.0" y="65.0" width="20.0" height="20.0" rx="3.0" ry="3.0" fill="#ebedf0"/><rect stroke="#dddddd" stroke-width="1.0" x="1030.0" y="90.0" width="20.0" height="20.0" rx="3.0" ry="3.0" fill="#B6E3FF"/><rect stroke="#dddddd" stroke-width="1.0" x="1030.0" y="115.0" width="20.0" height="20.0" rx="3.0" ry="3.0" fill="#54AEFF"/><rect stroke="#dddddd" stroke-width="1.0" x="1030.0" y="140.0" width="20.0" height="20.0" rx="3.0" ry="3.0" fill="#B6E3FF"/><rect stroke="#dddddd" stroke-width="1.0" x="1030.0" y="165.0" width="20.0" height="20.0" rx="3.0" ry="3.0" fill="#B6E3FF"/><rect stroke="#dddddd" stroke-width="1.0" x="1030.0" y="190.0" width="20.0" height="20.0" rx="3.0" ry="3.0" fill="#B6E3FF"/><rect stroke="#dddddd" stroke-width="1.0" x="1055.0" y="40.0" width="20.0" height="20.0" rx="3.0" ry="3.0" fill="#B6E3FF"/><rect stroke="#dddddd" stroke-width="1.0" x="1055.0" y="65.0" width="20.0" height="20.0" rx="3.0" ry="3.0" fill="#0969DA"/><rect stroke="#dddddd" stroke-width="1.0" x="1055.0" y="90.0" width="20.0" height="20.0" rx="3.0" ry="3.0" fill="#B6E3FF"/><rect stroke="#dddddd" stroke-width="1.0" x="1055.0" y="115.0" width="20.0" height="20.0" rx="3.0" ry="3.0" fill="#B6E3FF"/><rect stroke="#dddddd" stroke-width="1.0" x="1055.0" y="140.0" width="20.0" height="20.0" rx="3.0" ry="3.0" fill="#B6E3FF"/><rect stroke="#dddddd" stroke-width="1.0" x="1055.0" y="165.0" width="20.0" height="20.0" rx="3.0" ry="3.0" fill="#54AEFF"/><rect stroke="#dddddd" stroke-width="1.0" x="1055.0" y="190.0" width="20.0" height="20.0" rx="3.0" ry="3.0" fill="#B6E3FF"/><rect stroke="#dddddd" stroke-width="1.0" x="1080.0" y="40.0" width="20.0" height="20.0" rx="3.0" ry="3.0" fill="#54AEFF"/><rect stroke="#dddddd" stroke-width="1.0" x="1080.0" y="65.0" width="20.0" height="20.0" rx="3.0" ry="3.0" fill="#54AEFF"/><rect stroke="#dddddd" stroke-width="1.0" x="1080.0" y="90.0" width="20.0" height="20.0" rx="3.0" ry="3.0" fill="#54AEFF"/><rect stroke="#dddddd" stroke-width="1.0" x="1080.0" y="115.0" width="20.0" height="20.0" rx="3.0" ry="3.0" fill="#ebedf0"/><rect stroke="#dddddd" stroke-width="1.0" x="1080.0" y="140.0" width="20.0" height="20.0" rx="3.0" ry="3.0" fill="#54AEFF"/><rect stroke="#dddddd" stroke-width="1.0" x="1080.0" y="165.0" width="20.0" height="20.0" rx="3.0" ry="3.0" fill="#54AEFF"/><rect stroke="#dddddd" stroke-width="1.0" x="1080.0" y="190.0" width="20.0" height="20.0" rx="3.0" ry="3.0" fill="#54AEFF"/><rect stroke="#dddddd" stroke-width="1.0" x="1105.0" y="40.0" width="20.0" height="20.0" rx="3.0" ry="3.0" fill="#ebedf0"/><rect stroke="#dddddd" stroke-width="1.0" x="1105.0" y="65.0" width="20.0" height="20.0" rx="3.0" ry="3.0" fill="#ebedf0"/><rect stroke="#dddddd" stroke-width="1.0" x="1105.0" y="90.0" width="20.0" height="20.0" rx="3.0" ry="3.0" fill="#ebedf0"/><rect stroke="#dddddd" stroke-width="1.0" x="1105.0" y="115.0" width="20.0" height="20.0" rx="3.0" ry="3.0" fill="#ebedf0"/><rect stroke="#dddddd" stroke-width="1.0" x="1105.0" y="140.0" width="20.0" height="20.0" rx="3.0" ry="3.0" fill="#ebedf0"/><rect stroke="#dddddd" stroke-width="1.0" x="1105.0" y="165.0" width="20.0" height="20.0" rx="3.0" ry="3.0" fill="#ebedf0"/><rect stroke="#dddddd" stroke-width="1.0" x="1105.0" y="190.0" width="20.0" height="20.0" rx="3.0" ry="3.0" fill="#ebedf0"/><rect stroke="#dddddd" stroke-width="1.0" x="1130.0" y="40.0" width="20.0" height="20.0" rx="3.0" ry="3.0" fill="#ebedf0"/><rect stroke="#dddddd" stroke-width="1.0" x="1130.0" y="65.0" width="20.0" height="20.0" rx="3.0" ry="3.0" fill="#ebedf0"/><rect stroke="#dddddd" stroke-width="1.0" x="1130.0" y="90.0" width="20.0" height="20.0" rx="3.0" ry="3.0" fill="#54AEFF"/><rect stroke="#dddddd" stroke-width="1.0" x="1130.0" y="115.0" width="20.0" height="20.0" rx="3.0" ry="3.0" fill="#54AEFF"/><rect stroke="#dddddd" stroke-width="1.0" x="1130.0" y="140.0" width="20.0" height="20.0" rx="3.0" ry="3.0" fill="#B6E3FF"/><rect stroke="#dddddd" stroke-width="1.0" x="1130.0" y="165.0" width="20.0" height="20.0" rx="3.0" ry="3.0" fill="#ebedf0"/><rect stroke="#dddddd" stroke-width="1.0" x="1130.0" y="190.0" width="20.0" height="20.0" rx="3.0" ry="3.0" fill="#ebedf0"/><rect stroke="#dddddd" stroke-width="1.0" x="1155.0" y="40.0" width="20.0" height="20.0" rx="3.0" ry="3.0" fill="#B6E3FF"/><rect stroke="#dddddd" stroke-width="1.0" x="1155.0" y="65.0" width="20.0" height="20.0" rx="3.0" ry="3.0" fill="#54AEFF"/><rect stroke="#dddddd" stroke-width="1.0" x="1155.0" y="90.0" width="20.0" height="20.0" rx="3.0" ry="3.0" fill="#54AEFF"/><rect stroke="#dddddd" stroke-width="1.0" x="1155.0" y="115.0" width="20.0" height="20.0" rx="3.0" ry="3.0" fill="#0969DA"/><rect stroke="#dddddd" stroke-width="1.0" x="1155.0" y="140.0" width="20.0" height="20.0" rx="3.0" ry="3.0" fill="#B6E3FF"/><rect stroke="#dddddd" stroke-width="1.0" x="1155.0" y="165.0" width="20.0" height="20.0" rx="3.0" ry="3.0" fill="#54AEFF"/><rect stroke="#dddddd" stroke-width="1.0" x="1155.0" y="190.0" width="20.0" height="20.0" rx="3.0" ry="3.0" fill="#B6E3FF"/><rect stroke="#dddddd" stroke-width="1.0" x="1180.0" y="40.0" width="20.0" height="20.0" rx="3.0" ry="3.0" fill="#B6E3FF"/><rect stroke="#dddddd" stroke-width="1.0" x="1180.0" y="65.0" width="20.0" height="20.0" rx="3.0" ry="3.0" fill="#54AEFF"/><rect stroke="#dddddd" stroke-width="1.0" x="1180.0" y="90.0" width="20.0" height="20.0" rx="3.0" ry="3.0" fill="#B6E3FF"/><rect stroke="#dddddd" stroke-width="1.0" x="1180.0" y="115.0" width="20.0" height="20.0" rx="3.0" ry="3.0" fill="#54AEFF"/><rect stroke="#dddddd" stroke-width="1.0" x="1180.0" y="140.0" width="20.0" height="20.0" rx="3.0" ry="3.0" fill="#0A3069"/><rect stroke="#dddddd" stroke-width="1.0" x="1180.0" y="165.0" width="20.0" height="20.0" rx="3.0" ry="3.0" fill="#B6E3FF"/><rect stroke="#dddddd" stroke-width="1.0" x="1180.0" y="190.0" width="20.0" height="20.0" rx="3.0" ry="3.0" fill="#B6E3FF"/><rect stroke="#dddddd" stroke-width="1.0" x="1205.0" y="40.0" width="20.0" height="20.0" rx="3.0" ry="3.0" fill="#54AEFF"/><rect stroke="#dddddd" stroke-width="1.0" x="1205.0" y="65.0" width="20.0" height="20.0" rx="3.0" ry="3.0" fill="#0969DA"/><rect stroke="#dddddd" stroke-width="1.0" x="1205.0" y="90.0" width="20.0" height="20.0" rx="3.0" ry="3.0" fill="#0969DA"/><rect stroke="#dddddd" stroke-width="1.0" x="1205.0" y="115.0" width="20.0" height="20.0" rx="3.0" ry="3.0" fill="#0A3069"/><rect stroke="#dddddd" stroke-width="1.0" x="1205.0" y="140.0" width="20.0" height="20.0" rx="3.0" ry="3.0" fill="#B6E3FF"/><rect stroke="#dddddd" stroke-width="1.0" x="1205.0" y="165.0" width="20.0" height="20.0" rx="3.0" ry="3.0" fill="#54AEFF"/><rect stroke="#dddddd" stroke-width="1.0" x="1205.0" y="190.0" width="20.0" height="20.0" rx="3.0" ry="3.0" fill="#ebedf0"/><rect stroke="#dddddd" stroke-width="1.0" x="1230.0" y="40.0" width="20.0" height="20.0" rx="3.0" ry="3.0" fill="#ebedf0"/><rect stroke="#dddddd" stroke-width="1.0" x="1230.0" y="65.0" width="20.0" height="20.0" rx="3.0" ry="3.0" fill="#ebedf0"/><rect stroke="#dddddd" stroke-width="1.0" x="1230.0" y="90.0" width="20.0" height="20.0" rx="3.0" ry="3.0" fill="#ebedf0"/><rect stroke="#dddddd" stroke-width="1.0" x="1230.0" y="115.0" width="20.0" height="20.0" rx="3.0" ry="3.0" fill="#ebedf0"/><rect stroke="#dddddd" stroke-width="1.0" x="1230.0" y="140.0" width="20.0" height="20.0" rx="3.0" ry="3.0" fill="#ebedf0"/><rect stroke="#dddddd" stroke-width="1.0" x="1230.0" y="165.0" width="20.0" height="20.0" rx="3.0" ry="3.0" fill="#ebedf0"/><rect stroke="#dddddd" stroke-width="1.0" x="1230.0" y="190.0" width="20.0" height="20.0" rx="3.0" ry="3.0" fill="#ebedf0"/><rect stroke="#dddddd" stroke-width="1.0" x="1255.0" y="40.0" width="20.0" height="20.0" rx="3.0" ry="3.0" fill="#ebedf0"/><rect stroke="#dddddd" stroke-width="1.0" x="1255.0" y="65.0" width="20.0" height="20.0" rx="3.0" ry="3.0" fill="#ebedf0"/><rect stroke="#dddddd" stroke-width="1.0" x="1255.0" y="90.0" width="20.0" height="20.0" rx="3.0" ry="3.0" fill="#ebedf0"/><rect stroke="#dddddd" stroke-width="1.0" x="1255.0" y="115.0" width="20.0" height="20.0" rx="3.0" ry="3.0" fill="#ebedf0"/><rect stroke="#dddddd" stroke-width="1.0" x="1255.0" y="140.0" width="20.0" height="20.0" rx="3.0" ry="3.0" fill="#ebedf0"/><rect stroke="#dddddd" stroke-width="1.0" x="1255.0" y="165.0" width="20.0" height="20.0" rx="3.0" ry="3.0" fill="#ebedf0"/><rect stroke="#dddddd" stroke-width="1.0" x="1255.0" y="190.0" width="20.0" height="20.0" rx="3.0" ry="3.0" fill="#ebedf0"/><rect stroke="#dddddd" stroke-width="1.0" x="1280.0" y="40.0" width="20.0" height="20.0" rx="3.0" ry="3.0" fill="#ebedf0"/><rect stroke="#dddddd" stroke-width="1.0" x="1280.0" y="65.0" width="20.0" height="20.0" rx="3.0" ry="3.0" fill="#ebedf0"/><rect stroke="#dddddd" stroke-width="1.0" x="1280.0" y="90.0" width="20.0" height="20.0" rx="3.0" ry="3.0" fill="#ebedf0"/><rect stroke="#dddddd" stroke-width="1.0" x="1280.0" y="115.0" width="20.0" height="20.0" rx="3.0" ry="3.0" fill="#ebedf0"/><rect stroke="#dddddd" stroke-width="1.0" x="1280.0" y="140.0" width="20.0" height="20.0" rx="3.0" ry="3.0" fill="#ebedf0"/><rect stroke="#dddddd" stroke-width="1.0" x="1280.0" y="165.0" width="20.0" height="20.0" rx="3.0" ry="3.0" fill="#ebedf0"/><rect stroke="#dddddd" stroke-width="1.0" x="1280.0" y="190.0" width="20.0" height="20.0" rx="3.0" ry="3.0" fill="#ebedf0"/><rect stroke="#dddddd" stroke-width="1.0" x="1305.0" y="40.0" width="20.0" height="20.0" rx="3.0" ry="3.0" fill="#ebedf0"/><rect stroke="#dddddd" stroke-width="1.0" x="1305.0" y="65.0" width="20.0" height="20.0" rx="3.0" ry="3.0" fill="#ebedf0"/><rect stroke="#dddddd" stroke-width="1.0" x="1305.0" y="90.0" width="20.0" height="20.0" rx="3.0" ry="3.0" fill="#ebedf0"/><rect stroke="#dddddd" stroke-width="1.0" x="1305.0" y="115.0" width="20.0" height="20.0" rx="3.0" ry="3.0" fill="#ebedf0"/><rect stroke="#dddddd" stroke-width="1.0" x="1305.0" y="140.0" width="20.0" height="20.0" rx="3.0" ry="3.0" fill="#ebedf0"/><rect stroke="#dddddd" stroke-width="1.0" x="1305.0" y="165.0" width="20.0" height="20.0" rx="3.0" ry="3.0" fill="#54AEFF"/><rect stroke="#dddddd" stroke-width="1.0" x="1305.0" y="190.0" width="20.0" height="20.0" rx="3.0" ry="3.0" fill="#B6E3FF"/><rect stroke="#dddddd" stroke-width="1.0" x="1330.0" y="40.0" width="20.0" height="20.0" rx="3.0" ry="3.0" fill="#B6E3FF"/><rect stroke="#dddddd" stroke-width="1.0" x="1330.0" y="65.0" width="20.0" height="20.0" rx="3.0" ry="3.0" fill="#B6E3FF"/><rect stroke="#dddddd" stroke-width="1.0" x="1330.0" y="90.0" width="20.0" height="20.0" rx="3.0" ry="3.0" fill="#ebedf0"/><rect stroke="#dddddd" stroke-width="1.0" x="1330.0" y="115.0" width="20.0" height="20.0" rx="3.0" ry="3.0" fill="#ebedf0"/><rect stroke="#dddddd" stroke-width="1.0" x="1330.0" y="140.0" width="20.0" height="20.0" rx="3.0" ry="3.0" fill="#ebedf0"/><rect stroke="#dddddd" stroke-width="1.0" x="1330.0" y="165.0" width="20.0" height="20.0" rx="3.0" ry="3.0" fill="#ebedf0"/><rect stroke="#dddddd" stroke-width="1.0" x="1330.0" y="190.0" width="20.0" height="20.0" rx="3.0" ry="3.0" fill="#ebedf0"/><rect stroke="#dddddd" stroke-width="1.0" x="1355.0" y="40.0" width="20.0" height="20.0" rx="3.0" ry="3.0" fill="#ebedf0"/><text font-family="Noto Sans" font-size="24.0" x="15.0" y="83.0">Mon</text><text font-family="Noto Sans" font-size="24.0" x="15.0" y="133.0">Wed</text><text font-family="Noto Sans" font-size="24.0" x="15.0" y="183.0">Fri</text><text font-family="Noto Sans" font-size="24.0" x="105.0" y="30.0">Nov</text><text font-family="Noto Sans" font-size="24.0" x="205.0" y="30.0">Dec</text><text font-family="Noto Sans" font-size="24.0" x="330.0" y="30.0">Jan</text><text font-family="Noto Sans" font-size="24.0" x="430.0" y="30.0">Feb</text><text font-family="Noto Sans" font-size="24.0" x="530.0" y="30.0">Mar</text><text font-family="Noto Sans" font-size="24.0" x="655.0" y="30.0">Apr</text><text font-family="Noto Sans" font-size="24.0" x="755.0" y="30.0">May</text><text font-family="Noto Sans" font-size="24.0" x="855.0" y="30.0">Jun</text><text font-family="Noto Sans" font-size="24.0" x="980.0" y="30.0">Jul</text><text font-family="Noto Sans" font-size="24.0" x="1080.0" y="30.0">Aug</text><text font-family="Noto Sans" font-size="24.0" x="1205.0" y="30.0">Sep</text><text font-family="Noto Sans" font-size="24.0" x="1305.0" y="30.0">Oct</text></svg>