<?xml version="1.0" encoding="UTF-8" standalone="no"?>
<!-- Generator: Adobe Illustrator 28.2.0, SVG Export Plug-In . SVG Version: 6.00 Build 0)  -->

<svg
   version="1.1"
   id="Calque_1"
   x="0px"
   y="0px"
   viewBox="0 0 255.49999 255.29999"
   xml:space="preserve"
   sodipodi:docname="hal_logo.svg"
   width="255.5"
   height="255.3"
   inkscape:version="1.2.2 (b0a8486541, 2022-12-01)"
   xmlns:inkscape="http://www.inkscape.org/namespaces/inkscape"
   xmlns:sodipodi="http://sodipodi.sourceforge.net/DTD/sodipodi-0.dtd"
   xmlns="http://www.w3.org/2000/svg"
   xmlns:svg="http://www.w3.org/2000/svg"><defs
   id="defs416" /><sodipodi:namedview
   id="namedview414"
   pagecolor="#ffffff"
   bordercolor="#000000"
   borderopacity="0.25"
   inkscape:showpageshadow="2"
   inkscape:pageopacity="0.0"
   inkscape:pagecheckerboard="0"
   inkscape:deskcolor="#d1d1d1"
   showgrid="false"
   inkscape:zoom="1.1458558"
   inkscape:cx="247.84968"
   inkscape:cy="127.85203"
   inkscape:window-width="1920"
   inkscape:window-height="1043"
   inkscape:window-x="0"
   inkscape:window-y="0"
   inkscape:window-maximized="1"
   inkscape:current-layer="g410" />
<style
   type="text/css"
   id="style365">
	.st0{display:none;}
	.st1{display:inline;fill:#00005F;}
	.st2{fill:#FF4600;}
	.st3{fill:#CD3C1B;}
	.st4{fill:#A53232;}
	.st5{fill:#7D2D46;}
	.st6{fill:#64286E;}
	.st7{fill:#411489;}
	.st8{fill:#20208C;}
	.st9{fill:#FFFFFF;}
</style>
<g
   id="Background"
   class="st0"
   transform="translate(0,-1.4)">
	<rect
   x="-138.3"
   y="-136.60001"
   class="st1"
   width="1085"
   height="530"
   id="rect367" />
</g>
<g
   id="Contenu"
   transform="translate(0,-1.4)">
	<g
   id="g410">
		<g
   id="g400"
   transform="matrix(0.81844327,0,0,0.81844327,23.193872,23.429896)">
			<g
   id="g398">
				<g
   id="g372">
					<path
   class="st2"
   d="m 200.5,57.5 c 5,5 11.6,7.8 18.7,7.8 h 0.1 c 6.1,0 11.8,-2 16.5,-5.8 -9.6,-14.9 -22.2,-27.8 -36.9,-37.6 -3.9,4.7 -6.1,10.6 -6.1,16.8 0,7.2 2.7,13.8 7.7,18.8 z"
   id="path370" />
				</g>
				<g
   id="g376">
					<path
   class="st3"
   d="M 192.7,66 C 178.1,51.5 170.1,32.2 170.2,11.8 c 0,-1.4 0.1,-2.8 0.1,-4.1 -8.6,-3 -17.6,-5.2 -26.9,-6.3 -0.4,3.4 -0.5,6.9 -0.5,10.3 -0.1,27.8 10.8,53.9 30.6,73.6 20.5,20.4 47.5,30.6 74.5,30.6 2.5,0 5,-0.1 7.5,-0.3 -1,-9.3 -2.9,-18.4 -5.8,-27 -20.7,0.5 -41.4,-7.1 -57,-22.6 z"
   id="path374" />
				</g>
				<g
   id="g380">
					<path
   class="st4"
   d="M 165.6,93.7 C 139.2,67.4 120,36 109.1,1.6 c -9.2,1.3 -18,3.6 -26.5,6.7 12.1,39 33.8,74.9 63.7,104.7 29.3,29.2 64.1,49.8 101.1,62 3.2,-8.4 5.7,-17.2 7.1,-26.4 C 222,137.7 191.4,119.4 165.6,93.7 Z"
   id="path378" />
				</g>
				<g
   id="g384">
					<path
   class="st5"
   d="M 227.7,209.5 47.7,28.2 C 40.6,33.9 34,40.3 28.2,47.3 l 180.2,181.5 c 7.1,-5.7 13.6,-12.2 19.3,-19.3 z"
   id="path382" />
				</g>
				<g
   id="g388">
					<path
   class="st6"
   d="m 7.1,83.9 c -3.2,8.5 -5.5,17.3 -6.8,26.5 33.4,10.9 64.8,29.4 91.2,55.7 25.8,25.7 44.7,56.4 55.8,89.8 9.2,-1.4 18,-3.8 26.4,-7.1 -12.3,-38.1 -33.6,-73 -62.9,-102.1 C 80.8,116.9 45.1,96 7.1,83.9 Z"
   id="path386" />
				</g>
				<g
   id="g392">
					<path
   class="st7"
   d="M 83.7,174.5 C 60.9,151.8 30,141.7 0,144.3 c 1.1,9.3 3.2,18.3 6.2,26.9 21,-0.8 42.3,6.7 58.3,22.6 14.6,14.5 22.6,33.8 22.5,54.2 0,0.9 0,1.9 -0.1,2.8 8.6,2.9 17.6,4.9 27,5.9 0.2,-2.8 0.4,-5.7 0.4,-8.6 0,-27.7 -10.8,-53.9 -30.6,-73.6 z"
   id="path390" />
				</g>
				<g
   id="g396">
					<path
   class="st8"
   d="m 56.7,202.3 c -5,-5 -11.6,-7.8 -18.7,-7.8 h -0.1 c -6.3,0 -12.2,2.2 -17,6.2 9.9,14.7 22.8,27.2 37.8,36.7 3.7,-4.6 5.7,-10.3 5.7,-16.3 0,-7.1 -2.8,-13.7 -7.7,-18.8 z"
   id="path394" />
				</g>
			</g>
		</g>
		
	</g>
</g>
</svg>
